<svg version="1.2" xmlns="http://www.w3.org/2000/svg" viewBox="0 0 739 194" width="739" height="194">
	<title>7725856-ai</title>
	<defs>
		<linearGradient id="g1" x2="1" gradientUnits="userSpaceOnUse" gradientTransform="matrix(116.516,111.848,-111.848,116.516,-8.024,109.081)">
			<stop offset="0" stop-color="#2af598"/>
			<stop offset="1" stop-color="#009efd"/>
		</linearGradient>
		<linearGradient id="g2" x2="1" gradientUnits="userSpaceOnUse" gradientTransform="matrix(-218.294,-0.546,.09,-35.86,740.02,-488.708)">
			<stop offset="0" stop-color="#2af598"/>
			<stop offset="1" stop-color="#009efd"/>
		</linearGradient>
	</defs>
	<style>
		tspan { white-space:pre } 
		.t0 { font-size: 77px;fill: #ffffff;font-weight: 400;font-family: "Alata-Regular", "Alata" } 
		.t1 { font-size: 27px;fill: #ffffff;font-family: "Raleway" } 
		.s2 { fill: url(#g1) } 
		.s3 { fill: url(#g2) } 
	</style>
	<g id="PRINT">
		<g id="&lt;Group&gt;">
			<text id="Medical
" style="transform: matrix(2,0,0,2,179.938,115.451)" >
				<tspan x="0" y="0" class="t0">Medical
</tspan>
			</text>
			<text id="Healthcare
" style="transform: matrix(2,0,0,2,176.883,192.759)" >
				<tspan x="0" y="0" class="t1" dx="0 3 3 3 3 3 3 3 3 3 3" >Healthcare
</tspan>
			</text>
			<path id="CUSTOM 00000167364554571000672030000011285236050719710087 " fill-rule="evenodd" class="s2" d="m5.9 122.4c-7.6-7.2-7.8-19.2-0.6-26.8 7.2-7.5 19.2-7.7 26.8-0.5 5.9 5.7 7.3 14.4 4.1 21.5l51.5 49.4c16.1 15.4 41.7 14.9 57.1-1.1 14.8-15.5 14.9-39.7 0.7-55.2l-49.3-6.8q-0.5 0-1-0.2c-13.6-0.9-26.7-6.8-37.1-16.8-6-5.7-10.6-12.3-13.8-19.6q-0.2-0.4-0.4-0.8 0-0.2-0.1-0.4c-1.5-4.3-0.6-9.4 2.8-12.9 4.8-5 12.8-5.2 17.8-0.4 5.1 4.8 5.2 12.8 0.4 17.9q-1.2 1.2-2.6 2.1 2.1 2.6 4.6 5c17.1 16.5 42.6 18 56.7 3.3 14.1-14.7 11.6-40.1-5.6-56.5q-2.5-2.4-5.2-4.4-0.8 1.4-2 2.7c-4.9 5-12.8 5.2-17.9 0.3-5-4.8-5.2-12.8-0.3-17.8 3.4-3.6 8.4-4.7 12.8-3.3q0.2 0 0.4 0.1 0.4 0.1 0.8 0.3c7.4 2.9 14.2 7.3 20.2 13 10 9.7 16.4 22.1 18.1 35.2q0.1 0.3 0.1 0.6l8.9 49.8c19.7 20.3 19.9 52.9 0.1 73.5-20.2 21.1-53.8 21.8-74.9 1.5l-51.5-49.4c-7 3.5-15.7 2.4-21.6-3.3zm120.3-28.1l14.1 1.9-2.5-14q-2.3 3.5-5.2 6.6-3 3.1-6.4 5.5zm-102.7 18.8c2.4-2.5 2.3-6.5-0.2-8.9-2.5-2.4-6.5-2.3-8.9 0.2-2.4 2.5-2.3 6.5 0.2 8.9 2.5 2.4 6.5 2.3 8.9-0.2z"/>
			<path id="CUSTOM" fill-rule="evenodd" class="s3" d="m738.4 175.7c-0.1 9.9-8.1 17.9-18 17.9-7.8 0-14.4-5-16.9-12 0 0-91.2 0-183.4 0v-12c92.2 0 183.4 0 183.4 0 2.5-6.9 9.2-11.9 17-11.9 9.9 0.1 17.9 8.1 17.9 18zm-12 0c0-3.3-2.7-6-6-6-3.3 0-5.9 2.7-5.9 5.9-0.1 3.3 2.6 6 5.9 6 3.3 0 6-2.6 6-5.9z"/>
		</g>
	</g>
</svg>